<?xml version="1.0" encoding="utf-8"?>
<!-- Generator: Adobe Illustrator 16.0.4, SVG Export Plug-In . SVG Version: 6.00 Build 0)  -->
<!DOCTYPE svg PUBLIC "-//W3C//DTD SVG 1.1//EN" "http://www.w3.org/Graphics/SVG/1.1/DTD/svg11.dtd">
<svg version="1.1" xmlns="http://www.w3.org/2000/svg" xmlns:xlink="http://www.w3.org/1999/xlink" x="0px" y="0px"
	 width="77.932px" height="65.914px" viewBox="0 0 77.932 65.914" enable-background="new 0 0 77.932 65.914" xml:space="preserve">
<g id="Vrstva_1">
</g>
<g id="Text" opacity="0.5">
</g>
<g id="Header">
</g>
<g id="Vrstva_7">
</g>
<g id="Vrstva_8">
</g>
<g id="Vrstva_3">
	<g id="Nový_symbol_x2026__1">
	</g>
	<g>
		<defs>
			<rect id="SVGID_29_" x="994.622" y="417.598" width="640.915" height="458.935"/>
		</defs>
		<clipPath id="SVGID_2_">
			<use xlink:href="#SVGID_29_"  overflow="visible"/>
		</clipPath>
	</g>
	<g>
		
			<polygon fill="none" stroke="#A80022" stroke-width="0.8633" stroke-linecap="round" stroke-linejoin="round" stroke-miterlimit="10" points="
			38.966,43.229 26.83,49.943 33.211,65.482 44.721,65.482 51.101,49.943 		"/>
		
			<polyline fill="none" stroke="#A80022" stroke-width="0.8633" stroke-linecap="round" stroke-linejoin="round" stroke-miterlimit="10" points="
			38.966,43.229 53.979,13.345 38.966,0.432 23.953,13.345 38.966,43.229 		"/>
		
			<line fill="none" stroke="#A80022" stroke-width="0.8633" stroke-linecap="round" stroke-linejoin="round" stroke-miterlimit="10" x1="38.966" y1="43.229" x2="38.966" y2="65.482"/>
		
			<line fill="none" stroke="#A80022" stroke-width="0.8633" stroke-linecap="round" stroke-linejoin="round" stroke-miterlimit="10" x1="38.966" y1="0.432" x2="38.966" y2="43.229"/>
		
			<polyline fill="none" stroke="#A80022" stroke-width="0.8633" stroke-linecap="round" stroke-linejoin="round" stroke-miterlimit="10" points="
			38.966,43.229 63.809,23.183 72.44,23.183 68.509,38.338 64.192,43.229 51.101,49.943 		"/>
		
			<polygon fill="none" stroke="#A80022" stroke-width="0.8633" stroke-linecap="round" stroke-linejoin="round" stroke-miterlimit="10" points="
			44.721,65.482 65.151,47.546 77.5,42.824 63.905,58.576 		"/>
		
			<line fill="none" stroke="#A80022" stroke-width="0.8633" stroke-linecap="round" stroke-linejoin="round" stroke-miterlimit="10" x1="38.966" y1="43.229" x2="64.192" y2="43.229"/>
		
			<line fill="none" stroke="#A80022" stroke-width="0.8633" stroke-linecap="round" stroke-linejoin="round" stroke-miterlimit="10" x1="68.509" y1="38.338" x2="63.809" y2="23.183"/>
		
			<polyline fill="none" stroke="#A80022" stroke-width="0.8633" stroke-linecap="round" stroke-linejoin="round" stroke-miterlimit="10" points="
			38.966,43.229 14.124,23.183 5.492,23.183 9.424,38.338 13.74,43.229 26.83,49.943 		"/>
		
			<polygon fill="none" stroke="#A80022" stroke-width="0.8633" stroke-linecap="round" stroke-linejoin="round" stroke-miterlimit="10" points="
			33.211,65.482 12.781,47.546 0.432,42.824 14.027,58.576 		"/>
		
			<line fill="none" stroke="#A80022" stroke-width="0.8633" stroke-linecap="round" stroke-linejoin="round" stroke-miterlimit="10" x1="38.966" y1="43.229" x2="13.74" y2="43.229"/>
		
			<line fill="none" stroke="#A80022" stroke-width="0.8633" stroke-linecap="round" stroke-linejoin="round" stroke-miterlimit="10" x1="9.424" y1="38.338" x2="14.124" y2="23.183"/>
		<g>
			
				<path fill="none" stroke="#A80022" stroke-width="0.8633" stroke-linecap="round" stroke-linejoin="round" stroke-miterlimit="10" d="
				M77.5,42.824l-5.059-19.641l-1.439-12.757c0,0-16.64,2.823-17.024,2.919"/>
			
				<path fill="none" stroke="#A80022" stroke-width="0.8633" stroke-linecap="round" stroke-linejoin="round" stroke-miterlimit="10" d="
				M0.432,42.824l5.06-19.641L6.93,10.426c0,0,16.64,2.823,17.022,2.919"/>
		</g>
	</g>
	<rect x="-104.076" y="-50.401" fill="none" width="297.11" height="110.938"/>
</g>
<g id="Vrstva_6">
	<g>
		<defs>
			<rect id="SVGID_36_" x="-992.534" y="-534.815" width="307" height="233"/>
		</defs>
		<clipPath id="SVGID_4_">
			<use xlink:href="#SVGID_36_"  overflow="visible"/>
		</clipPath>
		<g clip-path="url(#SVGID_4_)">
			<defs>
				<rect id="SVGID_38_" x="-1050.047" y="-534.039" width="424" height="234"/>
			</defs>
			<clipPath id="SVGID_6_">
				<use xlink:href="#SVGID_38_"  overflow="visible"/>
			</clipPath>
			<g clip-path="url(#SVGID_6_)">
				
					<image overflow="visible" width="1920" height="1080" xlink:href="../../Pictures/Broukova_nahled_01.jpeg"  transform="matrix(1 0 0 1 -1658.1084 -1014.2759)">
				</image>
			</g>
		</g>
	</g>
</g>
</svg>
