<?xml version="1.0" encoding="utf-8"?>
<!-- Generator: Adobe Illustrator 16.0.4, SVG Export Plug-In . SVG Version: 6.00 Build 0)  -->
<!DOCTYPE svg PUBLIC "-//W3C//DTD SVG 1.1//EN" "http://www.w3.org/Graphics/SVG/1.1/DTD/svg11.dtd">
<svg version="1.1" id="Vrstva_1" xmlns="http://www.w3.org/2000/svg" xmlns:xlink="http://www.w3.org/1999/xlink" x="0px" y="0px"
	 width="550px" height="373px" viewBox="0 0 550 373" enable-background="new 0 0 550 373" xml:space="preserve">
<rect x="-144" y="-24.645" fill="#A80022" width="841.89" height="467.645"/>
<line fill="none" stroke="#FECC5C" stroke-width="4" stroke-linecap="round" stroke-linejoin="round" stroke-miterlimit="10" x1="232.22" y1="122.491" x2="305.234" y2="162.877"/>
<polyline fill="none" stroke="#FECC5C" stroke-width="4" stroke-linecap="round" stroke-linejoin="round" stroke-miterlimit="10" points="
	334.523,157.553 245.012,103.26 215.271,147.969 "/>
<polyline fill="none" stroke="#FECC5C" stroke-width="4" stroke-linecap="round" stroke-linejoin="round" stroke-miterlimit="10" points="
	305.234,162.876 200.49,145.521 191.617,183.526 "/>
<polyline fill="none" stroke="#FECC5C" stroke-width="4" stroke-linecap="round" stroke-linejoin="round" stroke-miterlimit="10" points="
	262.097,184.118 364.481,179.924 386.252,148.151 191.618,183.527 "/>
<line fill="none" stroke="#FECC5C" stroke-width="4" stroke-linecap="round" stroke-linejoin="round" stroke-miterlimit="10" x1="233.145" y1="175.979" x2="262.097" y2="184.118"/>
<line fill="none" stroke="#FECC5C" stroke-width="4" stroke-linecap="round" stroke-linejoin="round" stroke-miterlimit="10" x1="324.37" y1="104.48" x2="332.856" y2="85.533"/>
<polyline fill="none" stroke="#FECC5C" stroke-width="4" stroke-linecap="round" stroke-linejoin="round" stroke-miterlimit="10" points="
	232.22,122.491 161.637,117.442 196.869,161.033 "/>
<line fill="none" stroke="#FECC5C" stroke-width="4" stroke-linecap="round" stroke-linejoin="round" stroke-miterlimit="10" x1="324.37" y1="104.48" x2="386.252" y2="148.151"/>
<polygon fill="none" stroke="#FECC5C" stroke-width="4" stroke-linecap="round" stroke-linejoin="round" stroke-miterlimit="10" points="
	357.411,89.644 370.322,99.505 369.791,106.114 318.756,77.675 341.609,70.732 358.723,84.795 "/>
<polyline fill="none" stroke="#FECC5C" stroke-width="4" stroke-linecap="round" stroke-linejoin="round" stroke-miterlimit="10" points="
	318.756,77.675 303.77,93.37 307.981,119.178 332.148,141.898 322.624,150.335 "/>
<text transform="matrix(1 0 0 1 45.8491 280.334)"><tspan x="0" y="0" fill="#FECC5C" font-family="'Raleway-Regular'" font-size="66">Si</tspan><tspan x="54.449" y="0" fill="#FECC5C" font-family="'Raleway-Regular'" font-size="66">l</tspan><tspan x="71.74" y="0" fill="#FECC5C" font-family="'Raleway-Regular'" font-size="66">vie B</tspan><tspan x="220.83" y="0" fill="#FECC5C" font-family="'Raleway-Regular'" font-size="66" letter-spacing="-1">r</tspan><tspan x="242.28" y="0" fill="#FECC5C" font-family="'Raleway-Regular'" font-size="66">ou</tspan><tspan x="320.752" y="0" fill="#FECC5C" font-family="'Raleway-Regular'" font-size="66" letter-spacing="-1">k</tspan><tspan x="354.016" y="0" fill="#FECC5C" font-family="'Raleway-Regular'" font-size="66" letter-spacing="-1">o</tspan><tspan x="392.098" y="0" fill="#FECC5C" font-family="'Raleway-Regular'" font-size="66">v</tspan><tspan x="426.483" y="0" fill="#FECC5C" font-family="'Raleway-Regular'" font-size="66">รก</tspan></text>
</svg>
