<?xml version="1.0" encoding="utf-8"?>
<!-- Generator: Adobe Illustrator 16.0.4, SVG Export Plug-In . SVG Version: 6.00 Build 0)  -->
<!DOCTYPE svg PUBLIC "-//W3C//DTD SVG 1.1//EN" "http://www.w3.org/Graphics/SVG/1.1/DTD/svg11.dtd">
<svg version="1.1" id="Vrstva_1" xmlns="http://www.w3.org/2000/svg" xmlns:xlink="http://www.w3.org/1999/xlink" x="0px" y="0px"
	 width="595px" height="378.765px" viewBox="-25.5 -5.765 595 378.765" enable-background="new -25.5 -5.765 595 378.765"
	 xml:space="preserve">
<g>
	<rect x="-144" y="-24.645" fill="#A80022" width="841.89" height="467.645"/>
	
		<line fill="none" stroke="#FECC5C" stroke-width="4" stroke-linecap="round" stroke-linejoin="round" stroke-miterlimit="10" x1="232.22" y1="122.491" x2="305.234" y2="162.877"/>
	
		<polyline fill="none" stroke="#FECC5C" stroke-width="4" stroke-linecap="round" stroke-linejoin="round" stroke-miterlimit="10" points="
		334.523,157.553 245.012,103.26 215.271,147.969 	"/>
	
		<polyline fill="none" stroke="#FECC5C" stroke-width="4" stroke-linecap="round" stroke-linejoin="round" stroke-miterlimit="10" points="
		305.234,162.876 200.49,145.521 191.617,183.526 	"/>
	
		<polyline fill="none" stroke="#FECC5C" stroke-width="4" stroke-linecap="round" stroke-linejoin="round" stroke-miterlimit="10" points="
		262.097,184.118 364.481,179.924 386.252,148.151 191.618,183.527 	"/>
	
		<line fill="none" stroke="#FECC5C" stroke-width="4" stroke-linecap="round" stroke-linejoin="round" stroke-miterlimit="10" x1="233.145" y1="175.979" x2="262.097" y2="184.118"/>
	
		<line fill="none" stroke="#FECC5C" stroke-width="4" stroke-linecap="round" stroke-linejoin="round" stroke-miterlimit="10" x1="324.37" y1="104.48" x2="332.856" y2="85.533"/>
	
		<polyline fill="none" stroke="#FECC5C" stroke-width="4" stroke-linecap="round" stroke-linejoin="round" stroke-miterlimit="10" points="
		232.22,122.491 161.637,117.442 196.869,161.033 	"/>
	
		<line fill="none" stroke="#FECC5C" stroke-width="4" stroke-linecap="round" stroke-linejoin="round" stroke-miterlimit="10" x1="324.37" y1="104.48" x2="386.252" y2="148.151"/>
	
		<polygon fill="none" stroke="#FECC5C" stroke-width="4" stroke-linecap="round" stroke-linejoin="round" stroke-miterlimit="10" points="
		357.411,89.644 370.322,99.505 369.791,106.114 318.756,77.675 341.609,70.732 358.723,84.795 	"/>
	
		<polyline fill="none" stroke="#FECC5C" stroke-width="4" stroke-linecap="round" stroke-linejoin="round" stroke-miterlimit="10" points="
		318.756,77.675 303.77,93.37 307.981,119.178 332.148,141.898 322.624,150.335 	"/>
	<g enable-background="new    ">
		<path fill="#FECC5C" d="M79.113,242.253c-1.32-1.495-3.081-2.706-5.28-3.63c-2.201-0.924-4.708-1.386-7.524-1.386
			c-4.136,0-7.151,0.781-9.042,2.343c-1.892,1.562-2.838,3.686-2.838,6.369c0,1.408,0.252,2.563,0.759,3.465
			c0.505,0.902,1.287,1.683,2.343,2.343c1.056,0.66,2.409,1.232,4.059,1.716c1.65,0.485,3.597,0.969,5.841,1.452
			c2.508,0.528,4.762,1.122,6.765,1.782c2.001,0.66,3.706,1.485,5.115,2.475c1.408,0.99,2.485,2.189,3.234,3.598
			c0.748,1.408,1.122,3.168,1.122,5.279c0,2.156-0.418,4.026-1.254,5.61c-0.836,1.584-2.002,2.904-3.498,3.96
			c-1.496,1.056-3.278,1.838-5.346,2.343c-2.069,0.506-4.334,0.76-6.798,0.76c-7.26,0-13.53-2.267-18.81-6.799l2.31-3.762
			c0.835,0.881,1.837,1.716,3.003,2.508c1.166,0.792,2.464,1.485,3.894,2.079c1.43,0.594,2.959,1.056,4.587,1.386
			c1.627,0.33,3.344,0.495,5.148,0.495c3.739,0,6.654-0.67,8.745-2.013c2.089-1.342,3.135-3.376,3.135-6.105
			c0-1.451-0.297-2.673-0.891-3.662c-0.594-0.99-1.485-1.849-2.673-2.574c-1.188-0.727-2.663-1.354-4.422-1.881
			c-1.761-0.528-3.807-1.057-6.138-1.584c-2.465-0.571-4.62-1.166-6.468-1.782c-1.848-0.616-3.41-1.386-4.686-2.311
			c-1.276-0.924-2.233-2.034-2.871-3.333c-0.639-1.297-0.957-2.893-0.957-4.784c0-2.155,0.406-4.081,1.221-5.775
			c0.814-1.693,1.969-3.102,3.465-4.224c1.495-1.122,3.255-1.98,5.28-2.574c2.023-0.594,4.268-0.892,6.732-0.892
			c3.124,0,5.907,0.474,8.349,1.419c2.442,0.947,4.653,2.277,6.633,3.993L79.113,242.253z"/>
		<path fill="#FECC5C" d="M90.861,238.755v-6.6h4.488v6.6H90.861z M90.861,280.335v-34.386h4.488v34.386H90.861z"/>
	</g>
	<g enable-background="new    ">
		<path fill="#FECC5C" d="M105.446,232.155h4.488v40.392c0,1.276,0.352,2.277,1.056,3.003c0.704,0.727,1.693,1.089,2.97,1.089
			c0.483,0,1.056-0.065,1.716-0.197c0.66-0.133,1.276-0.308,1.848-0.528l0.792,3.63c-0.836,0.353-1.859,0.639-3.069,0.858
			c-1.211,0.22-2.255,0.33-3.135,0.33c-2.069,0-3.696-0.583-4.884-1.749s-1.782-2.806-1.782-4.917V232.155z"/>
	</g>
	<g enable-background="new    ">
		<path fill="#FECC5C" d="M132.835,280.335l-13.992-34.386h4.62l11.814,30.228l11.88-30.228h4.356l-13.992,34.386H132.835z"/>
		<path fill="#FECC5C" d="M157.716,238.755v-6.6h4.488v6.6H157.716z M157.716,280.335v-34.386h4.488v34.386H157.716z"/>
		<path fill="#FECC5C" d="M186.953,280.995c-2.508,0-4.808-0.474-6.897-1.419c-2.09-0.946-3.905-2.244-5.445-3.895
			c-1.541-1.649-2.739-3.553-3.597-5.709c-0.858-2.155-1.287-4.465-1.287-6.93c0-2.419,0.429-4.696,1.287-6.831
			c0.858-2.134,2.046-4.003,3.564-5.61c1.518-1.605,3.333-2.881,5.445-3.827c2.112-0.946,4.399-1.42,6.864-1.42
			c2.508,0,4.807,0.474,6.897,1.42c2.089,0.946,3.883,2.233,5.379,3.86c1.496,1.629,2.662,3.498,3.498,5.61
			c0.835,2.112,1.254,4.355,1.254,6.731c0,0.354,0,0.705,0,1.057c0,0.353-0.023,0.594-0.066,0.726h-29.436
			c0.132,1.849,0.561,3.554,1.287,5.115c0.726,1.562,1.661,2.915,2.805,4.059c1.144,1.146,2.452,2.036,3.927,2.674
			c1.474,0.638,3.046,0.956,4.719,0.956c1.099,0,2.2-0.153,3.3-0.462c1.1-0.307,2.112-0.726,3.036-1.254
			c0.924-0.527,1.759-1.177,2.508-1.946c0.748-0.77,1.32-1.617,1.716-2.541l3.894,1.056c-0.528,1.276-1.277,2.432-2.244,3.465
			c-0.968,1.034-2.09,1.937-3.366,2.706c-1.276,0.771-2.684,1.364-4.224,1.782C190.23,280.785,188.625,280.995,186.953,280.995z
			 M199.625,261.327c-0.132-1.849-0.561-3.531-1.287-5.049c-0.726-1.519-1.65-2.827-2.772-3.928
			c-1.122-1.099-2.42-1.957-3.894-2.573c-1.475-0.616-3.047-0.925-4.719-0.925c-1.672,0-3.256,0.309-4.752,0.925
			c-1.496,0.616-2.805,1.475-3.927,2.573c-1.122,1.101-2.024,2.421-2.706,3.96c-0.683,1.541-1.089,3.213-1.221,5.017H199.625z"/>
		<path fill="#FECC5C" d="M263.842,268.257c0,1.761-0.353,3.378-1.056,4.852c-0.705,1.475-1.65,2.75-2.838,3.827
			c-1.188,1.079-2.574,1.914-4.158,2.509c-1.584,0.594-3.278,0.891-5.082,0.891h-22.11v-46.86h22.572
			c1.627,0,3.102,0.354,4.422,1.057c1.32,0.704,2.442,1.617,3.366,2.738c0.924,1.122,1.639,2.399,2.145,3.828
			c0.505,1.431,0.759,2.871,0.759,4.323c0,2.376-0.594,4.544-1.782,6.501c-1.188,1.958-2.838,3.422-4.95,4.389
			c2.684,0.792,4.807,2.268,6.369,4.423C263.06,262.889,263.842,265.397,263.842,268.257z M233.218,237.501v17.292h16.104
			c1.144,0,2.211-0.241,3.201-0.726c0.99-0.484,1.837-1.122,2.541-1.914c0.704-0.792,1.254-1.705,1.65-2.739
			c0.396-1.033,0.594-2.122,0.594-3.268c0-1.188-0.188-2.31-0.561-3.365c-0.375-1.057-0.902-1.969-1.584-2.739
			c-0.683-0.77-1.485-1.386-2.409-1.848c-0.924-0.462-1.937-0.693-3.036-0.693H233.218z M259.222,267.465
			c0-1.144-0.198-2.254-0.594-3.333c-0.396-1.077-0.957-2.023-1.683-2.838c-0.726-0.813-1.584-1.474-2.574-1.98
			c-0.99-0.505-2.057-0.759-3.201-0.759h-17.952v17.754h17.49c1.188,0,2.299-0.241,3.333-0.726c1.033-0.483,1.936-1.133,2.706-1.947
			c0.77-0.813,1.375-1.759,1.815-2.838C259.001,269.72,259.222,268.609,259.222,267.465z"/>
	</g>
	<g enable-background="new    ">
		<path fill="#FECC5C" d="M288.789,249.909c-3.036,0.089-5.676,0.924-7.92,2.508s-3.828,3.762-4.752,6.534v21.384h-4.488v-34.386
			h4.224v8.25c1.276-2.641,2.991-4.708,5.147-6.204c2.156-1.495,4.466-2.244,6.931-2.244c0.352,0,0.638,0.022,0.858,0.066V249.909z"
			/>
	</g>
	<g enable-background="new    ">
		<path fill="#FECC5C" d="M307.731,280.995c-2.508,0-4.797-0.474-6.864-1.419c-2.068-0.946-3.86-2.232-5.379-3.861
			c-1.519-1.627-2.696-3.52-3.53-5.676c-0.837-2.155-1.254-4.422-1.254-6.798c0-2.42,0.428-4.708,1.286-6.864
			c0.858-2.155,2.046-4.048,3.563-5.676c1.519-1.628,3.311-2.926,5.38-3.895c2.067-0.967,4.333-1.452,6.798-1.452
			c2.463,0,4.74,0.485,6.831,1.452c2.089,0.969,3.894,2.267,5.412,3.895c1.518,1.628,2.706,3.521,3.563,5.676
			c0.858,2.156,1.287,4.444,1.287,6.864c0,2.376-0.418,4.643-1.254,6.798c-0.836,2.156-2.013,4.049-3.531,5.676
			c-1.518,1.629-3.322,2.915-5.412,3.861C312.537,280.521,310.239,280.995,307.731,280.995z M295.256,263.306
			c0,1.937,0.33,3.729,0.99,5.379c0.66,1.65,1.551,3.103,2.674,4.356c1.121,1.254,2.441,2.233,3.959,2.937
			c1.519,0.705,3.136,1.057,4.852,1.057s3.333-0.363,4.852-1.089c1.518-0.727,2.848-1.717,3.992-2.971s2.047-2.716,2.706-4.389
			c0.66-1.672,0.99-3.476,0.99-5.412c0-1.892-0.33-3.685-0.99-5.379c-0.659-1.693-1.562-3.168-2.706-4.422s-2.475-2.244-3.992-2.97
			c-1.519-0.727-3.136-1.089-4.852-1.089s-3.322,0.362-4.818,1.089c-1.496,0.726-2.816,1.727-3.959,3.003
			c-1.146,1.276-2.047,2.762-2.707,4.455C295.586,259.556,295.256,261.371,295.256,263.306z"/>
		<path fill="#FECC5C" d="M343.106,280.995c-3.74,0-6.523-1.243-8.35-3.729c-1.826-2.485-2.738-6.192-2.738-11.121v-20.195h4.488
			v19.403c0,7.788,2.661,11.683,7.986,11.683c1.319,0,2.617-0.22,3.893-0.66c1.276-0.439,2.453-1.078,3.531-1.914
			c1.078-0.835,2.047-1.825,2.904-2.97c0.857-1.144,1.551-2.442,2.079-3.895v-21.647h4.488v28.578c0,1.232,0.528,1.848,1.584,1.848
			v3.96c-0.528,0.088-0.957,0.132-1.287,0.132s-0.562,0-0.692,0c-1.057-0.044-1.914-0.418-2.574-1.122
			c-0.66-0.703-0.99-1.649-0.99-2.838v-3.96c-1.496,2.685-3.531,4.764-6.105,6.237C348.748,280.259,346.01,280.995,343.106,280.995z
			"/>
	</g>
	<g enable-background="new    ">
		<path fill="#FECC5C" d="M396.103,280.335l-12.672-17.622l-7.392,6.864v10.758h-4.488v-48.18h4.488v32.735l19.338-18.876h5.082
			l-14.059,14.059l14.586,20.262H396.103z"/>
	</g>
	<g enable-background="new    ">
		<path fill="#FECC5C" d="M419.467,280.995c-2.508,0-4.797-0.474-6.864-1.419c-2.068-0.946-3.86-2.232-5.379-3.861
			c-1.519-1.627-2.696-3.52-3.53-5.676c-0.837-2.155-1.254-4.422-1.254-6.798c0-2.42,0.428-4.708,1.286-6.864
			c0.858-2.155,2.046-4.048,3.563-5.676c1.519-1.628,3.311-2.926,5.38-3.895c2.067-0.967,4.333-1.452,6.798-1.452
			c2.463,0,4.74,0.485,6.831,1.452c2.089,0.969,3.894,2.267,5.412,3.895c1.518,1.628,2.706,3.521,3.563,5.676
			c0.858,2.156,1.287,4.444,1.287,6.864c0,2.376-0.418,4.643-1.254,6.798c-0.836,2.156-2.013,4.049-3.531,5.676
			c-1.518,1.629-3.322,2.915-5.412,3.861C424.274,280.521,421.975,280.995,419.467,280.995z M406.992,263.306
			c0,1.937,0.33,3.729,0.99,5.379c0.66,1.65,1.551,3.103,2.674,4.356c1.121,1.254,2.441,2.233,3.959,2.937
			c1.519,0.705,3.136,1.057,4.852,1.057s3.333-0.363,4.852-1.089c1.518-0.727,2.848-1.717,3.992-2.971s2.047-2.716,2.706-4.389
			c0.66-1.672,0.99-3.476,0.99-5.412c0-1.892-0.33-3.685-0.99-5.379c-0.659-1.693-1.562-3.168-2.706-4.422s-2.475-2.244-3.992-2.97
			c-1.519-0.727-3.136-1.089-4.852-1.089s-3.322,0.362-4.818,1.089c-1.496,0.726-2.816,1.727-3.959,3.003
			c-1.146,1.276-2.047,2.762-2.707,4.455C407.323,259.556,406.992,261.371,406.992,263.306z"/>
	</g>
	<g enable-background="new    ">
		<path fill="#FECC5C" d="M453.194,280.335l-13.992-34.386h4.619l11.814,30.228l11.88-30.228h4.356l-13.992,34.386H453.194z"/>
	</g>
	<g enable-background="new    ">
		<path fill="#FECC5C" d="M485.928,280.995c-1.629,0-3.135-0.275-4.521-0.825c-1.386-0.55-2.596-1.309-3.63-2.277
			c-1.034-0.967-1.837-2.101-2.409-3.398s-0.857-2.695-0.857-4.191c0-1.495,0.352-2.881,1.056-4.158
			c0.704-1.275,1.693-2.376,2.97-3.3c1.275-0.924,2.794-1.639,4.555-2.145c1.759-0.506,3.695-0.759,5.808-0.759
			c1.759,0,3.542,0.154,5.347,0.462c1.803,0.308,3.408,0.748,4.817,1.319v-3.102c0-3.036-0.858-5.445-2.574-7.228
			c-1.716-1.781-4.092-2.673-7.128-2.673c-1.76,0-3.564,0.353-5.412,1.057s-3.719,1.716-5.609,3.035l-1.584-2.97
			c4.443-2.991,8.755-4.488,12.936-4.488c4.312,0,7.699,1.211,10.164,3.631c2.464,2.42,3.695,5.765,3.695,10.031v15.511
			c0,1.232,0.551,1.848,1.65,1.848v3.96c-0.748,0.132-1.32,0.198-1.716,0.198c-1.145,0-2.036-0.286-2.673-0.858
			c-0.639-0.571-0.979-1.363-1.023-2.376l-0.131-2.706c-1.584,2.069-3.576,3.653-5.974,4.752
			C491.283,280.444,488.699,280.995,485.928,280.995z M486.984,277.562c2.332,0,4.477-0.438,6.435-1.319
			c1.958-0.88,3.443-2.046,4.455-3.498c0.396-0.396,0.693-0.825,0.892-1.287s0.297-0.891,0.297-1.287v-5.61
			c-1.496-0.571-3.048-1.012-4.653-1.319c-1.606-0.308-3.245-0.462-4.916-0.462c-3.168,0-5.742,0.659-7.723,1.979
			s-2.971,3.059-2.971,5.214c0,1.057,0.209,2.046,0.628,2.971c0.417,0.924,0.989,1.727,1.716,2.408
			c0.727,0.683,1.594,1.222,2.607,1.617C484.762,277.365,485.839,277.562,486.984,277.562z M490.152,239.415l-2.97-1.122
			l3.895-6.138h4.752L490.152,239.415z"/>
	</g>
</g>
</svg>
